{
    "asset" : {
        "generator" : "Khronos glTF Blender I/O v3.4.48",
        "version" : "2.0"
    },
    "extensionsUsed" : [
        "KHR_materials_transmission",
        "KHR_materials_ior"
    ],
    "scene" : 0,
    "scenes" : [
        {
            "name" : "Scene",
            "nodes" : [
                0
            ]
        }
    ],
    "nodes" : [
        {
            "mesh" : 0,
            "name" : "Cylinder.001",
            "scale" : [
                0.049244225025177,
                0.2088727504014969,
                0.049244225025177
            ],
            "translation" : [
                0.6601516008377075,
                2.074544668197632,
                -2.5664753913879395
            ]
        }
    ],
    "materials" : [
        {
            "doubleSided" : true,
            "extensions" : {
                "KHR_materials_transmission" : {
                    "transmissionFactor" : 1
                },
                "KHR_materials_ior" : {
                    "ior" : 1.4500000476837158
                }
            },
            "name" : "Material",
            "pbrMetallicRoughness" : {
                "baseColorFactor" : [
                    0.8000000715255737,
                    0.7970539331436157,
                    0.788253903388977,
                    1
                ],
                "metallicFactor" : 0.3544303774833679,
                "roughnessFactor" : 0.12658226490020752
            }
        }
    ],
    "meshes" : [
        {
            "name" : "Cylinder.003",
            "primitives" : [
                {
                    "attributes" : {
                        "POSITION" : 0,
                        "TEXCOORD_0" : 1,
                        "NORMAL" : 2
                    },
                    "indices" : 3,
                    "material" : 0
                }
            ]
        }
    ],
    "accessors" : [
        {
            "bufferView" : 0,
            "componentType" : 5126,
            "count" : 37677,
            "max" : [
                51.06438064575195,
                10.557526588439941,
                42.6572380065918
            ],
            "min" : [
                -67.2769775390625,
                -15.83568286895752,
                -44.00712966918945
            ],
            "type" : "VEC3"
        },
        {
            "bufferView" : 1,
            "componentType" : 5126,
            "count" : 37677,
            "type" : "VEC2"
        },
        {
            "bufferView" : 2,
            "componentType" : 5126,
            "count" : 37677,
            "type" : "VEC3"
        },
        {
            "bufferView" : 3,
            "componentType" : 5123,
            "count" : 91935,
            "type" : "SCALAR"
        }
    ],
    "bufferViews" : [
        {
            "buffer" : 0,
            "byteLength" : 452124,
            "byteOffset" : 0,
            "target" : 34962
        },
        {
            "buffer" : 0,
            "byteLength" : 301416,
            "byteOffset" : 452124,
            "target" : 34962
        },
        {
            "buffer" : 0,
            "byteLength" : 452124,
            "byteOffset" : 753540,
            "target" : 34962
        },
        {
            "buffer" : 0,
            "byteLength" : 183870,
            "byteOffset" : 1205664,
            "target" : 34963
        }
    ],
    "buffers" : [
        {
            "byteLength" : 1389536,
            "uri" : "data:application/octet-stream;base64,"
        }
    ]
}
