{
    "asset" : {
        "generator" : "Khronos glTF Blender I/O v3.4.48",
        "version" : "2.0"
    },
    "extensionsUsed" : [
        "KHR_materials_transmission",
        "KHR_materials_ior"
    ],
    "scene" : 0,
    "scenes" : [
        {
            "name" : "Scene",
            "nodes" : [
                0
            ]
        }
    ],
    "nodes" : [
        {
            "mesh" : 0,
            "name" : "Cylinder.001",
            "scale" : [
                0.049244225025177,
                0.2088727504014969,
                0.049244225025177
            ],
            "translation" : [
                -0.07020408660173416,
                -0.18440639972686768,
                0.0015949343796819448
            ]
        }
    ],
    "materials" : [
        {
            "doubleSided" : true,
            "extensions" : {
                "KHR_materials_transmission" : {
                    "transmissionFactor" : 1
                },
                "KHR_materials_ior" : {
                    "ior" : 1.4500000476837158
                }
            },
            "name" : "Material.001",
            "pbrMetallicRoughness" : {
                "baseColorFactor" : [
                    0.8000000715255737,
                    0.7970539331436157,
                    0.788253903388977,
                    1
                ],
                "metallicFactor" : 0.3544303774833679,
                "roughnessFactor" : 0.12658226490020752
            }
        }
    ],
    "meshes" : [
        {
            "name" : "Cylinder.003",
            "primitives" : [
                {
                    "attributes" : {
                        "POSITION" : 0,
                        "TEXCOORD_0" : 1,
                        "NORMAL" : 2
                    },
                    "indices" : 3,
                    "material" : 0
                }
            ]
        }
    ],
    "accessors" : [
        {
            "bufferView" : 0,
            "componentType" : 5126,
            "count" : 55207,
            "max" : [
                52.490013122558594,
                11.440391540527344,
                42.62485122680664
            ],
            "min" : [
                -65.85134887695312,
                -14.952817916870117,
                -44.03951644897461
            ],
            "type" : "VEC3"
        },
        {
            "bufferView" : 1,
            "componentType" : 5126,
            "count" : 55207,
            "type" : "VEC2"
        },
        {
            "bufferView" : 2,
            "componentType" : 5126,
            "count" : 55207,
            "type" : "VEC3"
        },
        {
            "bufferView" : 3,
            "componentType" : 5123,
            "count" : 91935,
            "type" : "SCALAR"
        }
    ],
    "bufferViews" : [
        {
            "buffer" : 0,
            "byteLength" : 662484,
            "byteOffset" : 0,
            "target" : 34962
        },
        {
            "buffer" : 0,
            "byteLength" : 441656,
            "byteOffset" : 662484,
            "target" : 34962
        },
        {
            "buffer" : 0,
            "byteLength" : 662484,
            "byteOffset" : 1104140,
            "target" : 34962
        },
        {
            "buffer" : 0,
            "byteLength" : 183870,
            "byteOffset" : 1766624,
            "target" : 34963
        }
    ],
    "buffers" : [
        {
            "byteLength" : 1950496,
            "uri" : "data:application/octet-stream;base64,"
        }
    ]
}
